<svg id="Layer_1" enable-background="new 0 0 512 512" height="512" viewBox="0 0 512 512" width="512" xmlns="http://www.w3.org/2000/svg"><g><g><ellipse cx="256" cy="485.269" fill="#ab7c5e" rx="96.092" ry="26.731"/><path d="m256 458.539c-7.073 0-13.965.215-20.604.618 43.168 2.624 75.489 13.317 75.489 26.113 0 12.795-32.321 23.489-75.489 26.113 6.639.402 13.531.617 20.604.617 53.07 0 96.092-11.968 96.092-26.731 0-14.762-43.022-26.73-96.092-26.73z" fill="#a17152"/><path d="m424.227 168.028c0 101.632-106.633 252.227-150.106 309.4-9.107 11.977-27.135 11.977-36.242 0-43.473-57.173-150.106-207.769-150.106-309.4 0-92.799 75.318-168.028 168.227-168.028s168.227 75.229 168.227 168.028z" fill="#ffdb0d"/><path d="m256 0c-6.976 0-13.85.432-20.604 1.256 83.189 10.148 147.623 80.94 147.623 166.772 0 99.752-102.718 246.663-147.623 306.123.846 1.12 1.679 2.22 2.483 3.277 9.107 11.977 27.135 11.977 36.242 0 43.473-57.173 150.106-207.769 150.106-309.4 0-92.799-75.318-168.028-168.227-168.028z" fill="#f2cf00"/></g><ellipse cx="256" cy="169.192" fill="#f5f5f5" rx="126.096" ry="125.816"/><g><g><path d="m345.495 203.178c-16.895-14.085-39.995-16.338-61.069-13.682 21.743-14.87 41.653-34.219 46.737-61.197-24.832 4.337-47.395 22.226-62.202 41.974 5.787-30.155 6.633-62.873-12.744-88.73-19.4 25.887-18.534 58.652-12.724 88.836-14.772-19.732-37.177-38.464-62.281-42.08 4.998 27.053 25.091 46.411 46.824 61.256-21.172-2.734-44.556-.612-61.531 13.623 18.498 13.273 44.163 15.551 65.611 9.556-5.945 15.397-3.422 26.836-3.422 26.836 11.724-2.677 21.453-9.987 27.494-20.432 5.732 9.911 14.728 17.535 25.858 20.432 0 0 3.911-10.87-1.756-26.836 21.253 6.068 46.919 3.68 65.205-9.556z" fill="#70e07a"/></g></g><path d="m255.99 342.616c-11.672 0-23.339-1.199-34.918-3.597-4.179-.866-6.864-4.954-5.999-9.133.866-4.179 4.954-6.861 9.133-5.999 20.617 4.27 41.545 4.364 62.202.281 4.184-.826 8.251 1.894 9.078 6.081.828 4.186-1.895 8.251-6.081 9.078-11.092 2.193-22.255 3.289-33.415 3.289z" fill="#d6b80b"/></g></svg>